<svg version="1.1" viewBox="0 0 192 192" xmlns="http://www.w3.org/2000/svg" xmlns:xlink="http://www.w3.org/1999/xlink"><defs><linearGradient id="d" x1="192" x2="192" y1="140.3" y2="332.3" gradientTransform="translate(266.86 297.65)" gradientUnits="userSpaceOnUse" xlink:href="#a"/><linearGradient id="a"><stop stop-color="#fbfcfc" stop-opacity=".1" offset="0"/><stop stop-color="#fbfcfc" stop-opacity="0" offset="1"/></linearGradient><radialGradient id="c" cx="2.5447e-6" cy="243.21" r="76" gradientTransform="matrix(2.5263 2.5263 -2.5263 2.5263 881.28 -176.47)" gradientUnits="userSpaceOnUse" xlink:href="#a"/><filter id="f" x="-.14" y="-.105" width="1.28" height="1.21" color-interpolation-filters="sRGB"><feGaussianBlur stdDeviation="1.4"/></filter><filter id="g" x="-.056" y="-.042" width="1.112" height="1.084" color-interpolation-filters="sRGB"><feGaussianBlur stdDeviation="0.56"/></filter><filter id="i" x="-.063652" y="-.038526" width="1.1273" height="1.0771" color-interpolation-filters="sRGB"><feGaussianBlur stdDeviation="2.44"/></filter><filter id="h" x="-.063652" y="-.038526" width="1.1273" height="1.0771" color-interpolation-filters="sRGB"><feGaussianBlur stdDeviation="2.44"/></filter><linearGradient id="e" x1="80" x2="80" y1="252.3" y2="280.3" gradientTransform="translate(266.86 297.65)" gradientUnits="userSpaceOnUse"><stop stop-color="#4d6570" offset="0"/><stop stop-color="#4d6570" stop-opacity=".06" offset="1"/></linearGradient><filter id="j" x="-.033333" y="-.085714" width="1.0667" height="1.1714" color-interpolation-filters="sRGB"><feGaussianBlur stdDeviation="2"/></filter><filter id="b" x="-.05475" y="-.042732" width="1.1095" height="1.0855" color-interpolation-filters="sRGB"><feGaussianBlur stdDeviation="2.9199997"/></filter></defs><g transform="translate(-266.86 -437.95)"><g shape-rendering="auto"><path d="m316.86 449.95c-3.324 0-6 2.676-6 6v8c0 3.324 2.676 6 6 6h14v16h8v-16h2c3.324 0 6-2.676 6-6v-8c0-3.324-2.676-6-6-6zm68 0c-3.324 0-6 2.676-6 6v8c0 3.324 2.676 6 6 6h2v16h8v-16h14c3.324 0 6-2.676 6-6v-8c0-3.324-2.676-6-6-6zm-86 108v12l25.607 38c2.0698 3.5886 5.9358 6 10.393 6h56c4.4567 0 8.3227-2.4114 10.393-6h0.0117l25.596-38v-12z" color="#000000" color-rendering="auto" filter="url(#b)" image-rendering="auto" opacity=".2"/><path d="m316.86 445.95c-3.324 0-6 2.676-6 6v8c0 3.324 2.676 6 6 6h14v16h8v-16h2c3.324 0 6-2.676 6-6v-8c0-3.324-2.676-6-6-6zm68 0c-3.324 0-6 2.676-6 6v8c0 3.324 2.676 6 6 6h2v16h8v-16h14c3.324 0 6-2.676 6-6v-8c0-3.324-2.676-6-6-6zm-86 108v12l25.607 38c2.0698 3.5886 5.9358 6 10.393 6h56c4.4567 0 8.3227-2.4114 10.393-6h0.0117l25.596-38v-12z" color="#000000" color-rendering="auto" filter="url(#b)" image-rendering="auto" opacity=".2"/><path d="m290.86 553.95 8 12 25.607 38c2.0698 3.5886 5.9358 6 10.393 6h56c4.4568 0 8.3228-2.4114 10.393-6h0.0117l25.596-38 8-12z" color="#000000" color-rendering="auto" filter="url(#j)" image-rendering="auto" opacity=".2"/></g><g transform="translate(266.86 297.65)"><path transform="translate(0,140.3)" d="m32 116v12l25.607 38c2.0698 3.5886 5.9358 6 10.393 6h56c4.4568 0 8.3228-2.4114 10.393-6h0.0117l25.596-38v-12z" fill="#607d8b" fill-rule="evenodd"/></g><g shape-rendering="auto"><rect x="330.86" y="453.95" width="8" height="28" color="#000000" color-rendering="auto" fill="#263238" image-rendering="auto"/><rect x="386.86" y="453.95" width="8" height="28" color="#000000" color-rendering="auto" fill="#263238" image-rendering="auto"/><path d="m298.86 564.95v1l25.607 38c2.0698 3.5886 5.9358 6 10.393 6h56c4.4568 0 8.3228-2.4114 10.393-6h0.0117l25.596-38v-1l-25.596 38h-0.0117c-2.0698 3.5886-5.9358 6-10.393 6h-56c-4.4567 0-8.3228-2.4114-10.393-6z" color="#000000" color-rendering="auto" fill="#4d6570" image-rendering="auto"/><rect transform="rotate(90)" x="445.95" y="-346.86" width="20" height="36" rx="6" ry="6" color="#000000" color-rendering="auto" fill="#607d8b" image-rendering="auto"/><rect transform="rotate(90)" x="445.95" y="-414.86" width="20" height="36" rx="6" ry="6" color="#000000" color-rendering="auto" fill="#607d8b" image-rendering="auto"/><path d="m310.86 458.95v1c0 3.324 2.676 6 6 6h24c3.324 0 6-2.676 6-6v-1c0 3.324-2.676 6-6 6h-24c-3.324 0-6-2.676-6-6z" color="#000000" color-rendering="auto" fill="#4d6570" image-rendering="auto"/><path d="m378.86 458.95v1c0 3.324 2.676 6 6 6h24c3.324 0 6-2.676 6-6v-1c0 3.324-2.676 6-6 6h-24c-3.324 0-6-2.676-6-6z" color="#000000" color-rendering="auto" fill="#4d6570" image-rendering="auto"/><path d="m316.86 445.95c-3.324 0-6 2.676-6 6v1c0-3.324 2.676-6 6-6h24c3.324 0 6 2.676 6 6v-1c0-3.324-2.676-6-6-6z" color="#000000" color-rendering="auto" fill="#8097a2" image-rendering="auto"/><path d="m384.86 445.95c-3.324 0-6 2.676-6 6v1c0-3.324 2.676-6 6-6h24c3.324 0 6 2.676 6 6v-1c0-3.324-2.676-6-6-6z" color="#000000" color-rendering="auto" fill="#8097a2" image-rendering="auto"/></g><path d="m298.86 553.95v12l25.607 38c2.0698 3.5886 5.9358 6 10.393 6h56c4.4568 0 8.3228-2.4114 10.393-6h0.0117l25.596-38v-12z" fill="url(#e)" fill-rule="evenodd"/><g transform="translate(266.86 297.65)"><g shape-rendering="auto"><rect transform="rotate(90)" x="180.3" y="-172" width="92" height="152" rx="12" ry="12" color="#000000" color-rendering="auto" filter="url(#i)" image-rendering="auto" opacity=".2"/><rect transform="rotate(90)" x="176.3" y="-172" width="92" height="152" rx="12" color="#000000" color-rendering="auto" filter="url(#h)" image-rendering="auto" opacity=".2"/><rect transform="rotate(90)" x="176.3" y="-172" width="92" height="152" rx="12" color="#000000" color-rendering="auto" fill="#ff1744" image-rendering="auto"/></g><path d="m36 192.3 60 32 60-32" fill="none" stroke="#fbe9e7" stroke-linecap="round" stroke-width="6"/><g shape-rendering="auto"><path transform="translate(0,140.3)" d="m32 36c-6.648 0-12 5.352-12 12v1c0-6.648 5.352-12 12-12h128c6.648 0 12 5.352 12 12v-1c0-6.648-5.352-12-12-12z" color="#000000" color-rendering="auto" fill="#ff4569" image-rendering="auto"/><path transform="translate(0,140.3)" d="m20 115v1c0 6.648 5.352 12 12 12h128c6.648 0 12-5.352 12-12v-1c0 6.648-5.352 12-12 12h-128c-6.648 0-12-5.352-12-12z" color="#000000" color-rendering="auto" fill="#d81a3d" image-rendering="auto"/><path d="m90 296.3c-3.324 0-6 2.676-6 6v12c0 0.27298 0.02557 0.53962 0.06055 0.80273 2.55e-4 2e-3 -2.57e-4 4e-3 0 6e-3a12 12 0 0 0-0.06055 1.1913 12 12 0 0 0 12 12 12 12 0 0 0 12-12 12 12 0 0 0-0.0664-1.1523c0.039-0.27746 0.0664-0.55911 0.0664-0.84766v-12c0-3.324-2.676-6-6-6z" color="#000000" color-rendering="auto" filter="url(#f)" image-rendering="auto" opacity=".2"/><path transform="translate(0,140.3)" d="m90 152c-3.324 0-6 2.676-6 6v12c0 0.27298 0.02557 0.53962 0.06055 0.80273 2.55e-4 2e-3 -2.57e-4 4e-3 0 6e-3a12 12 0 0 0-0.06055 1.1913 12 12 0 0 0 12 12 12 12 0 0 0 12-12 12 12 0 0 0-0.0664-1.1523c0.039-0.27746 0.0664-0.55911 0.0664-0.84766v-12c0-3.324-2.676-6-6-6z" color="#000000" color-rendering="auto" filter="url(#g)" image-rendering="auto" opacity=".2"/><rect transform="rotate(90)" x="292.3" y="-108" width="24" height="24" rx="6" ry="6" color="#000000" color-rendering="auto" fill="#263238" image-rendering="auto"/><circle cx="96" cy="312.3" r="12" color="#000000" color-rendering="auto" fill="#263238" image-rendering="auto"/><path transform="translate(0,140.3)" d="m90 152c-3.324 0-6 2.676-6 6v1c0-3.324 2.676-6 6-6h12c3.324 0 6 2.676 6 6v-1c0-3.324-2.676-6-6-6z" color="#000000" color-rendering="auto" fill="#37474f" image-rendering="auto"/><path transform="translate(0,140.3)" d="m84.021 171.43a12 12 0 0 0-0.021484 0.57031 12 12 0 0 0 12 12 12 12 0 0 0 12-12 12 12 0 0 0-0.0195-0.41406 12 12 0 0 1-11.98 11.414 12 12 0 0 1-11.979-11.57z" color="#000000" color-rendering="auto" fill="#1a252a" image-rendering="auto"/></g></g><path d="m316.86 445.95c-3.324 0-6 2.676-6 6v8c0 3.324 2.676 6 6 6h14v8h-32c-6.648 0-12 5.352-12 12v68c0 6.648 5.352 12 12 12l25.607 38c2.0698 3.5886 5.9358 6 10.393 6h16a12 12 0 0 0 12 12 12 12 0 0 0 11.998-12h16.002c4.4568 0 8.3228-2.4114 10.393-6h0.01l25.598-38c6.6471-1e-3 12-5.3526 12-12v-68c0-6.648-5.354-12-12.002-12h-31.998v-8h13.998c3.324 0 6.002-2.676 6.002-6v-8c0-3.324-2.678-6-6.002-6h-23.998c-3.324 0-6 2.676-6 6v8c0 3.324 2.676 6 6 6h2v8h-48v-8h1.998c3.324 0 6.002-2.676 6.002-6v-8c0-3.324-2.678-6-6.002-6z" fill="url(#c)" fill-rule="evenodd"/><path d="m316.86 445.95c-3.324 0-6 2.676-6 6v8c0 3.324 2.676 6 6 6h14v8h-32c-6.648 0-12 5.352-12 12v68c0 6.648 5.352 12 12 12l25.607 38c2.0698 3.5886 5.9358 6 10.393 6h16a12 12 0 0 0 12 12 12 12 0 0 0 11.998-12h16.002c4.4568 0 8.3228-2.4114 10.393-6h0.01l25.598-38c6.6471-1e-3 12-5.3526 12-12v-68c0-6.648-5.354-12-12.002-12h-31.998v-8h13.998c3.324 0 6.002-2.676 6.002-6v-8c0-3.324-2.678-6-6.002-6h-23.998c-3.324 0-6 2.676-6 6v8c0 3.324 2.676 6 6 6h2v8h-48v-8h1.998c3.324 0 6.002-2.676 6.002-6v-8c0-3.324-2.678-6-6.002-6z" fill="url(#d)" fill-rule="evenodd"/></g></svg>
