<svg width="39" height="38" viewBox="0 0 39 38" fill="none" xmlns="http://www.w3.org/2000/svg">
<path opacity="0.504232" fill-rule="evenodd" clip-rule="evenodd" d="M16.6023 0.145909L19.8534 1.50503C20.351 1.71305 20.7357 2.12416 20.9103 2.63445L22.2029 6.41286C22.411 7.02112 22.9146 7.48146 23.5391 7.63419L37.0658 10.9425C37.9098 11.149 38.5035 11.9054 38.5035 12.7743V28.5575C38.5035 29.599 37.6593 30.4432 36.6178 30.4432C36.4299 30.4432 36.2429 30.4151 36.0633 30.3598L15.3204 23.9774C14.5292 23.734 13.9893 23.0029 13.9893 22.1751V1.88571C13.9893 0.844263 14.8335 0 15.875 0C16.1247 0 16.3719 0.0495959 16.6023 0.145909Z" fill="#A2BFFF"/>
<path opacity="0.8" fill-rule="evenodd" clip-rule="evenodd" d="M11.8879 3.91733L15.1391 5.27645C15.6366 5.48447 16.0214 5.89559 16.1959 6.40587L17.4886 10.1843C17.6966 10.7925 18.2003 11.2529 18.8247 11.4056L32.3515 14.714C33.1955 14.9204 33.7892 15.6768 33.7892 16.5457V32.3289C33.7892 33.3704 32.9449 34.2146 31.9035 34.2146C31.7155 34.2146 31.5286 34.1865 31.3489 34.1312L10.6061 27.7488C9.81483 27.5054 9.2749 26.7743 9.2749 25.9465V5.65714C9.2749 4.61569 10.1192 3.77142 11.1606 3.77142C11.4103 3.77142 11.6576 3.82102 11.8879 3.91733Z" fill="#A0BDFF"/>
<path fill-rule="evenodd" clip-rule="evenodd" d="M7.17358 7.12305L10.4247 8.48217C10.9223 8.69019 11.307 9.1013 11.4816 9.61159L12.7742 13.39C12.9823 13.9983 13.4859 14.4586 14.1104 14.6113L27.6371 17.9197C28.4811 18.1261 29.0748 18.8825 29.0748 19.7514V35.5346C29.0748 36.5761 28.2306 37.4204 27.1891 37.4204C27.0011 37.4204 26.8142 37.3922 26.6346 37.337L5.8917 30.9545C5.10047 30.7111 4.56055 29.9801 4.56055 29.1522V8.86286C4.56055 7.82141 5.40481 6.97714 6.44626 6.97714C6.69597 6.97714 6.94319 7.02674 7.17358 7.12305Z" fill="#1A47FF"/>
<path fill-rule="evenodd" clip-rule="evenodd" d="M2.39093 15.4852L23.3423 21.305C23.9748 21.4807 24.4704 21.9727 24.6508 22.6039L28.5972 36.4164C28.7403 36.9171 28.4503 37.439 27.9497 37.582C27.7741 37.6322 27.5878 37.6303 27.4134 37.5766L5.46807 30.8242C4.89715 30.6486 4.44323 30.2128 4.24442 29.6495L0.108018 17.9297C-0.238598 16.9476 0.276546 15.8705 1.25862 15.5239C1.62317 15.3952 2.01845 15.3817 2.39093 15.4852Z" fill="#5287FF"/>
</svg>
