<svg width="600" height="667" viewBox="0 0 600 667" fill="none" xmlns="http://www.w3.org/2000/svg">
<path d="M0 280.557C0 173.969 2.98023e-06 120.676 12.584 102.747C25.1677 84.818 75.2773 67.6653 175.497 33.3597L194.591 26.824C246.833 8.94133 272.953 0 300 0C327.047 0 353.167 8.94133 405.41 26.824L424.503 33.3597C524.723 67.6653 574.833 84.818 587.417 102.747C600 120.676 600 173.969 600 280.557C600 296.653 600 314.113 600 333.047C600 520.98 458.7 612.183 370.047 650.91C346 661.413 333.977 666.667 300 666.667C266.023 666.667 254 661.413 229.952 650.91C141.299 612.183 0 520.98 0 333.047C0 314.113 0 296.653 0 280.557Z" fill="#283618"/>
<path d="M263.205 207.678L275.374 229.483C286.356 249.161 281.948 274.975 264.651 292.272C264.651 292.272 243.673 313.253 281.71 351.291C319.735 389.316 340.729 368.35 340.729 368.35C358.026 351.053 383.839 346.645 403.517 357.627L425.322 369.795C455.037 386.378 458.545 428.048 432.428 454.167C416.734 469.861 397.508 482.073 376.255 482.877C340.478 484.234 279.718 475.18 218.77 414.231C157.821 353.282 148.766 292.523 150.123 256.746C150.929 235.493 163.14 216.267 178.834 200.573C204.952 174.455 246.622 177.964 263.205 207.678Z" fill="#FEFAE0"/>
</svg>
