<svg width="3000" xmlns="http://www.w3.org/2000/svg" height="1000" id="screenshot-a4ed09ef-3fc1-80b7-8004-67d9c524d77a" fill="none" version="1.1"><style>@font-face{font-family:&apos;Poppins&apos;;font-style:normal;font-weight:700;font-display:block;src:url(https://design.penpot.app/internal/gfonts/font/poppins/v21/pxiByp8kv8JHgFVrLCz7Z1JlFc-K.woff2) format(&apos;woff2&apos;);unicode-range:U+0100-02AF, U+0304, U+0308, U+0329, U+1E00-1E9F, U+1EF2-1EFF, U+2020, U+20A0-20AB, U+20AD-20C0, U+2113, U+2C60-2C7F, U+A720-A7FF}@font-face{font-family:&apos;Poppins&apos;;font-style:normal;font-weight:700;font-display:block;src:url(https://design.penpot.app/internal/gfonts/font/poppins/v21/pxiByp8kv8JHgFVrLCz7Z1xlFQ.woff2) format(&apos;woff2&apos;);unicode-range:U+0000-00FF, U+0131, U+0152-0153, U+02BB-02BC, U+02C6, U+02DA, U+02DC, U+0304, U+0308, U+0329, U+2000-206F, U+2074, U+20AC, U+2122, U+2191, U+2193, U+2212, U+2215, U+FEFF, U+FFFD}</style><g id="shape-a4ed09ef-3fc1-80b7-8004-67d9c524d77a"><defs><clipPath id="frame-clip-a4ed09ef-3fc1-80b7-8004-67d9c524d77a-render-1" class="frame-clip frame-clip-def"><rect rx="50" ry="50" width="3000" height="1000"/></clipPath></defs><g clip-path="url(#frame-clip-a4ed09ef-3fc1-80b7-8004-67d9c524d77a-render-1)"><g class="fills" id="fills-a4ed09ef-3fc1-80b7-8004-67d9c524d77a"><rect width="3000" height="1000" class="frame-background" style="fill: rgb(243, 249, 238); fill-opacity: 1;" ry="50" rx="50"/></g><g class="frame-children"><g id="shape-a4ed09ef-3fc1-80b7-8004-67da1c9b86e1"><g class="fills" id="fills-a4ed09ef-3fc1-80b7-8004-67da1c9b86e1"><rect rx="0" ry="0" width="3000" height="1000" class="frame-background"/></g><g class="frame-children"><g id="shape-a4ed09ef-3fc1-80b7-8004-67d946e842be" style="fill: rgb(0, 0, 0);"><g id="shape-a4ed09ef-3fc1-80b7-8004-67d946ea4735"><path d="M447.5 440.626c0-119.911 0-179.866 14.157-200.036 14.157-20.17 70.53-39.467 183.277-78.06l21.481-7.353C725.187 135.059 754.572 125 785 125c30.428 0 59.813 10.059 118.586 30.177l21.48 7.353c112.747 38.593 169.121 57.89 183.278 78.06 14.156 20.17 14.156 80.125 14.156 200.036v59.052c0 211.424-158.963 314.028-258.697 357.595C836.75 869.089 823.224 875 785 875s-51.75-5.911-78.804-17.727C606.461 813.706 447.5 711.102 447.5 499.678v-59.052Z" style="fill: rgb(39, 95, 48);" class="fills" id="fills-a4ed09ef-3fc1-80b7-8004-67d946ea4735"/></g><g id="shape-a4ed09ef-3fc1-80b7-8004-67d946eae1f9"><path d="m743.606 358.638 13.69 24.53c12.355 22.138 7.396 51.179-12.064 70.638 0 0-23.6 23.603 19.192 66.396 42.778 42.778 66.396 19.192 66.396 19.192 19.459-19.46 48.499-24.419 70.637-12.064l24.53 13.689c33.43 18.656 37.376 65.535 7.994 94.919-17.655 17.655-39.285 31.394-63.194 32.298-40.249 1.527-108.604-8.659-177.171-77.226-68.567-68.568-78.754-136.922-77.228-177.171.907-23.91 14.645-45.539 32.3-63.194 29.383-29.383 76.262-25.436 94.918 7.993Z" style="fill: rgb(243, 249, 238);" class="fills" id="fills-a4ed09ef-3fc1-80b7-8004-67d946eae1f9"/></g></g><g class="text-container" id="shape-a4ed09ef-3fc1-80b7-8004-67d9fbc80396"><defs><pattern patternUnits="userSpaceOnUse" x="1522.5" y="395" width="1029.188" height="245" id="fill-0-render-6-0"><rect width="1029.188" height="245" style="fill: rgb(50, 60, 64); fill-opacity: 1;"/></pattern></defs><text x="1522.5" y="622" dominant-baseline="ideographic" textLength="1029.188" lengthAdjust="spacingAndGlyphs" style="text-transform: none; font-family: Poppins; letter-spacing: normal; font-style: normal; font-weight: 700; white-space: pre; font-size: 175px; text-decoration: none solid rgb(50, 60, 64); direction: ltr; fill: rgb(50, 60, 64); fill-opacity: 1;" class="fills" id="fills-a4ed09ef-3fc1-80b7-8004-67d9fbc80396">Libre Shield</text></g></g></g></g></g></g></svg>